<mxfile host="app.diagrams.net" agent="Mozilla/5.0 (X11; Linux x86_64) AppleWebKit/537.36 (KHTML, like Gecko) Chrome/139.0.0.0 Safari/537.36" version="28.1.0">
  <diagram id="er_bozza" name="ER - Bozza">
    <mxGraphModel dx="2037" dy="1179" grid="1" gridSize="10" guides="1" tooltips="1" connect="1" arrows="1" fold="1" page="1" pageScale="1" pageWidth="2400" pageHeight="1500" background="#ffffff" math="0" shadow="0">
      <root>
        <mxCell id="0" />
        <mxCell id="1" parent="0" />
        <mxCell id="e_Utente" value="&lt;div style=&#39;font-weight:bold;font-size:18px;margin-bottom:6px&#39;&gt;Utente&lt;/div&gt;&lt;hr/&gt;&lt;u&gt;id&lt;/u&gt; : int&lt;br/&gt;nome : string&lt;br/&gt;email : string&lt;br/&gt;passwordHash : string&lt;br/&gt;ruolo : enum" style="shape=rectangle;rounded=1;whiteSpace=wrap;html=1;fillColor=#f3e8ff;strokeColor=#7e57c2;fontSize=15;verticalAlign=top;spacingTop=10;spacingLeft=12;spacingRight=12;spacingBottom=10;" parent="1" vertex="1">
          <mxGeometry x="280" y="220" width="320" height="190" as="geometry" />
        </mxCell>
        <mxCell id="e_Prodotto" value="&lt;div style=&#39;font-weight:bold;font-size:18px;margin-bottom:6px&#39;&gt;Prodotto&lt;/div&gt;&lt;hr/&gt;&lt;u&gt;id&lt;/u&gt; : int&lt;br/&gt;nome : string&lt;br/&gt;marca : string&lt;br/&gt;codiceEAN : string&lt;br/&gt;descrizione : string&lt;br/&gt;fotoURL : string&lt;br/&gt;aziendaId : int" style="shape=rectangle;rounded=1;whiteSpace=wrap;html=1;fillColor=#e8f0fe;strokeColor=#3367d6;fontSize=15;verticalAlign=top;spacingTop=10;spacingLeft=12;spacingRight=12;spacingBottom=10;" parent="1" vertex="1">
          <mxGeometry x="680" y="220" width="360" height="210" as="geometry" />
        </mxCell>
        <mxCell id="e_PuntoVendita" value="&lt;div style=&#39;font-weight:bold;font-size:18px;margin-bottom:6px&#39;&gt;PuntoVendita&lt;/div&gt;&lt;hr/&gt;&lt;u&gt;id&lt;/u&gt; : int&lt;br/&gt;nome : string&lt;br/&gt;indirizzo : string&lt;br/&gt;citta : string&lt;br/&gt;telefono : string&lt;br/&gt;email : string" style="shape=rectangle;rounded=1;whiteSpace=wrap;html=1;fillColor=#fff4e5;strokeColor=#ff8f00;fontSize=15;verticalAlign=top;spacingTop=10;spacingLeft=12;spacingRight=12;spacingBottom=10;" parent="1" vertex="1">
          <mxGeometry x="1120" y="220" width="340" height="190" as="geometry" />
        </mxCell>
        <mxCell id="e_Azienda" value="&lt;div style=&#39;font-weight:bold;font-size:18px;margin-bottom:6px&#39;&gt;Azienda&lt;/div&gt;&lt;hr/&gt;&lt;u&gt;id&lt;/u&gt; : int&lt;br/&gt;nome : string&lt;br/&gt;piva : string&lt;br/&gt;email : string" style="shape=rectangle;rounded=1;whiteSpace=wrap;html=1;fillColor=#e0f7fa;strokeColor=#0097a7;fontSize=15;verticalAlign=top;spacingTop=10;spacingLeft=12;spacingRight=12;spacingBottom=10;" parent="1" vertex="1">
          <mxGeometry x="1560" y="220" width="300" height="170" as="geometry" />
        </mxCell>
        <mxCell id="e_Prezzo" value="&lt;div style=&#39;font-weight:bold;font-size:18px;margin-bottom:6px&#39;&gt;Prezzo&lt;/div&gt;&lt;hr/&gt;&lt;u&gt;id&lt;/u&gt; : int&lt;br/&gt;prodottoId : int&lt;br/&gt;puntoVenditaId : int&lt;br/&gt;autoreId : int?&lt;br/&gt;valore : decimal&lt;br/&gt;dataInizio : date&lt;br/&gt;dataFine : date?&lt;br/&gt;fonte : enum{utente,pv}" style="shape=rectangle;rounded=1;whiteSpace=wrap;html=1;fillColor=#e7f5e8;strokeColor=#2e7d32;fontSize=15;verticalAlign=top;spacingTop=10;spacingLeft=12;spacingRight=12;spacingBottom=10;" parent="1" vertex="1">
          <mxGeometry x="680" y="500" width="360" height="240" as="geometry" />
        </mxCell>
        <mxCell id="e_Offerta" value="&lt;div style=&#39;font-weight:bold;font-size:18px;margin-bottom:6px&#39;&gt;Offerta&lt;/div&gt;&lt;hr/&gt;&lt;u&gt;id&lt;/u&gt; : int&lt;br/&gt;puntoVenditaId : int&lt;br/&gt;dataInizio : date&lt;br/&gt;dataFine : date" style="shape=rectangle;rounded=1;whiteSpace=wrap;html=1;fillColor=#ffebee;strokeColor=#c62828;fontSize=15;verticalAlign=top;spacingTop=10;spacingLeft=12;spacingRight=12;spacingBottom=10;" parent="1" vertex="1">
          <mxGeometry x="1120" y="500" width="340" height="200" as="geometry" />
        </mxCell>
        <mxCell id="e_DettaglioOfferta" value="&lt;div style=&#39;font-weight:bold;font-size:18px;margin-bottom:6px&#39;&gt;DettaglioOfferta&lt;/div&gt;&lt;hr/&gt;&lt;u&gt;id&lt;/u&gt; : int&lt;br/&gt;offertaId : int&lt;br/&gt;prodottoId : int&lt;br/&gt;prezzoOfferta : decimal" style="shape=rectangle;rounded=1;whiteSpace=wrap;html=1;fillColor=#fde0e0;strokeColor=#b71c1c;fontSize=15;verticalAlign=top;spacingTop=10;spacingLeft=12;spacingRight=12;spacingBottom=10;" parent="1" vertex="1">
          <mxGeometry x="1120" y="800" width="340" height="180" as="geometry" />
        </mxCell>
        <mxCell id="e_Watchlist" value="&lt;div style=&#39;font-weight:bold;font-size:18px;margin-bottom:6px&#39;&gt;Watchlist&lt;/div&gt;&lt;hr/&gt;&lt;u&gt;id&lt;/u&gt; : int&lt;br/&gt;utenteId : int&lt;br/&gt;prodottoId : int&lt;br/&gt;sogliaPrezzo : decimal?" style="shape=rectangle;rounded=1;whiteSpace=wrap;html=1;fillColor=#fff8e1;strokeColor=#f9a825;fontSize=15;verticalAlign=top;spacingTop=10;spacingLeft=12;spacingRight=12;spacingBottom=10;" parent="1" vertex="1">
          <mxGeometry x="280" y="840" width="320" height="170" as="geometry" />
        </mxCell>
        <mxCell id="e_Notifica" value="&lt;div style=&#39;font-weight:bold;font-size:18px;margin-bottom:6px&#39;&gt;Notifica&lt;/div&gt;&lt;hr/&gt;&lt;u&gt;id&lt;/u&gt; : int&lt;br/&gt;utenteId : int&lt;br/&gt;prodottoId : int&lt;br/&gt;tipo : enum{email,push}&lt;br/&gt;sogliaPrezzo : decimal?&lt;br/&gt;dataInvio : datetime?&lt;br/&gt;letto : bool" style="shape=rectangle;rounded=1;whiteSpace=wrap;html=1;fillColor=#eceff1;strokeColor=#455a64;fontSize=15;verticalAlign=top;spacingTop=10;spacingLeft=12;spacingRight=12;spacingBottom=10;" parent="1" vertex="1">
          <mxGeometry x="30" y="510" width="340" height="220" as="geometry" />
        </mxCell>
        <mxCell id="LpPOCJGxp_nDcjdyFBbE-39" value="" style="group" vertex="1" connectable="0" parent="1">
          <mxGeometry x="520" y="410" width="160" height="148" as="geometry" />
        </mxCell>
        <mxCell id="LpPOCJGxp_nDcjdyFBbE-12" value="" style="edgeStyle=orthogonalEdgeStyle;orthogonalLoop=1;jettySize=auto;html=1;rounded=0;strokeColor=default;align=center;verticalAlign=middle;fontFamily=Helvetica;fontSize=11;fontColor=default;labelBackgroundColor=default;endArrow=none;endFill=0;exitX=0.75;exitY=1;exitDx=0;exitDy=0;entryX=0;entryY=0.25;entryDx=0;entryDy=0;dashed=1;dashPattern=8 8;" edge="1" parent="LpPOCJGxp_nDcjdyFBbE-39" source="e_Utente" target="e_Prezzo">
          <mxGeometry width="80" relative="1" as="geometry">
            <mxPoint x="20" y="280" as="sourcePoint" />
            <mxPoint x="100" y="280" as="targetPoint" />
          </mxGeometry>
        </mxCell>
        <mxCell id="LpPOCJGxp_nDcjdyFBbE-15" value="&lt;font style=&quot;font-size: 14px;&quot;&gt;autore&lt;/font&gt;" style="edgeLabel;html=1;align=center;verticalAlign=middle;resizable=0;points=[];fontFamily=Helvetica;fontSize=11;fontColor=default;labelBackgroundColor=default;" vertex="1" connectable="0" parent="LpPOCJGxp_nDcjdyFBbE-12">
          <mxGeometry x="-0.0958" y="2" relative="1" as="geometry">
            <mxPoint x="-2" y="-7" as="offset" />
          </mxGeometry>
        </mxCell>
        <mxCell id="LpPOCJGxp_nDcjdyFBbE-13" value="&lt;span style=&quot;font-size: 14px;&quot;&gt;0..N&lt;/span&gt;" style="text;html=1;align=center;verticalAlign=middle;resizable=0;points=[];autosize=1;strokeColor=none;fillColor=none;fontFamily=Helvetica;fontSize=11;fontColor=default;labelBackgroundColor=default;" vertex="1" parent="LpPOCJGxp_nDcjdyFBbE-39">
          <mxGeometry width="50" height="30" as="geometry" />
        </mxCell>
        <mxCell id="LpPOCJGxp_nDcjdyFBbE-14" value="&lt;font style=&quot;font-size: 14px;&quot;&gt;1&lt;/font&gt;" style="text;html=1;align=center;verticalAlign=middle;resizable=0;points=[];autosize=1;strokeColor=none;fillColor=none;fontFamily=Helvetica;fontSize=11;fontColor=default;labelBackgroundColor=default;" vertex="1" parent="LpPOCJGxp_nDcjdyFBbE-39">
          <mxGeometry x="130" y="118" width="30" height="30" as="geometry" />
        </mxCell>
        <mxCell id="LpPOCJGxp_nDcjdyFBbE-40" value="" style="group" vertex="1" connectable="0" parent="1">
          <mxGeometry x="600" y="348" width="80" height="532" as="geometry" />
        </mxCell>
        <mxCell id="LpPOCJGxp_nDcjdyFBbE-29" value="" style="edgeStyle=orthogonalEdgeStyle;orthogonalLoop=1;jettySize=auto;html=1;rounded=0;strokeColor=default;align=center;verticalAlign=middle;fontFamily=Helvetica;fontSize=11;fontColor=default;labelBackgroundColor=default;endArrow=none;endFill=0;entryX=0;entryY=0.75;entryDx=0;entryDy=0;exitX=1;exitY=0.25;exitDx=0;exitDy=0;" edge="1" parent="LpPOCJGxp_nDcjdyFBbE-40" source="e_Watchlist" target="e_Prodotto">
          <mxGeometry width="80" relative="1" as="geometry">
            <mxPoint x="30" y="32" as="sourcePoint" />
            <mxPoint x="110" y="32" as="targetPoint" />
          </mxGeometry>
        </mxCell>
        <mxCell id="LpPOCJGxp_nDcjdyFBbE-30" value="&lt;font style=&quot;font-size: 14px;&quot;&gt;1&lt;/font&gt;" style="text;html=1;align=center;verticalAlign=middle;resizable=0;points=[];autosize=1;strokeColor=none;fillColor=none;fontFamily=Helvetica;fontSize=11;fontColor=default;labelBackgroundColor=default;" vertex="1" parent="LpPOCJGxp_nDcjdyFBbE-40">
          <mxGeometry x="50" width="30" height="30" as="geometry" />
        </mxCell>
        <mxCell id="LpPOCJGxp_nDcjdyFBbE-31" value="&lt;font style=&quot;font-size: 14px;&quot;&gt;N&lt;/font&gt;" style="text;html=1;align=center;verticalAlign=middle;resizable=0;points=[];autosize=1;strokeColor=none;fillColor=none;fontFamily=Helvetica;fontSize=11;fontColor=default;labelBackgroundColor=default;" vertex="1" parent="LpPOCJGxp_nDcjdyFBbE-40">
          <mxGeometry y="502" width="30" height="30" as="geometry" />
        </mxCell>
        <mxCell id="LpPOCJGxp_nDcjdyFBbE-41" value="" style="group" vertex="1" connectable="0" parent="1">
          <mxGeometry x="835" y="430" width="30" height="70" as="geometry" />
        </mxCell>
        <mxCell id="LpPOCJGxp_nDcjdyFBbE-6" value="" style="edgeStyle=none;shape=connector;rounded=0;orthogonalLoop=1;jettySize=auto;html=1;strokeColor=default;align=center;verticalAlign=middle;fontFamily=Helvetica;fontSize=11;fontColor=default;labelBackgroundColor=default;endArrow=none;endFill=0;" edge="1" parent="LpPOCJGxp_nDcjdyFBbE-41" source="e_Prodotto" target="e_Prezzo">
          <mxGeometry relative="1" as="geometry" />
        </mxCell>
        <mxCell id="LpPOCJGxp_nDcjdyFBbE-7" value="&lt;span style=&quot;font-size: 14px;&quot;&gt;1&lt;/span&gt;" style="text;html=1;align=center;verticalAlign=middle;resizable=0;points=[];autosize=1;strokeColor=none;fillColor=none;fontFamily=Helvetica;fontSize=11;fontColor=default;labelBackgroundColor=default;" vertex="1" parent="LpPOCJGxp_nDcjdyFBbE-41">
          <mxGeometry width="30" height="30" as="geometry" />
        </mxCell>
        <mxCell id="LpPOCJGxp_nDcjdyFBbE-8" value="&lt;font style=&quot;font-size: 14px;&quot;&gt;N&lt;/font&gt;" style="text;html=1;align=center;verticalAlign=middle;resizable=0;points=[];autosize=1;strokeColor=none;fillColor=none;fontFamily=Helvetica;fontSize=11;fontColor=default;labelBackgroundColor=default;" vertex="1" parent="LpPOCJGxp_nDcjdyFBbE-41">
          <mxGeometry y="40" width="30" height="30" as="geometry" />
        </mxCell>
        <mxCell id="LpPOCJGxp_nDcjdyFBbE-42" value="" style="group" vertex="1" connectable="0" parent="1">
          <mxGeometry x="820" y="170" width="915" height="50" as="geometry" />
        </mxCell>
        <mxCell id="LpPOCJGxp_nDcjdyFBbE-1" value="" style="orthogonalLoop=1;jettySize=auto;html=1;rounded=0;entryX=0.5;entryY=0;entryDx=0;entryDy=0;endArrow=none;endFill=0;edgeStyle=orthogonalEdgeStyle;exitX=0.473;exitY=-0.013;exitDx=0;exitDy=0;exitPerimeter=0;" edge="1" parent="LpPOCJGxp_nDcjdyFBbE-42" source="e_Prodotto" target="e_Azienda">
          <mxGeometry width="80" relative="1" as="geometry">
            <mxPoint x="50" y="50" as="sourcePoint" />
            <mxPoint x="70" as="targetPoint" />
            <Array as="points">
              <mxPoint x="30" />
              <mxPoint x="890" />
            </Array>
          </mxGeometry>
        </mxCell>
        <mxCell id="LpPOCJGxp_nDcjdyFBbE-3" value="&lt;span style=&quot;font-size: 14px;&quot;&gt;N&lt;/span&gt;" style="text;html=1;align=center;verticalAlign=middle;resizable=0;points=[];autosize=1;strokeColor=none;fillColor=none;fontFamily=Helvetica;fontSize=11;fontColor=default;labelBackgroundColor=default;" vertex="1" parent="LpPOCJGxp_nDcjdyFBbE-42">
          <mxGeometry y="20" width="30" height="30" as="geometry" />
        </mxCell>
        <mxCell id="LpPOCJGxp_nDcjdyFBbE-5" value="&lt;span style=&quot;font-size: 14px;&quot;&gt;1&lt;/span&gt;" style="text;html=1;align=center;verticalAlign=middle;resizable=0;points=[];autosize=1;strokeColor=none;fillColor=none;fontFamily=Helvetica;fontSize=11;fontColor=default;labelBackgroundColor=default;" vertex="1" parent="LpPOCJGxp_nDcjdyFBbE-42">
          <mxGeometry x="885" y="20" width="30" height="30" as="geometry" />
        </mxCell>
        <mxCell id="LpPOCJGxp_nDcjdyFBbE-43" value="" style="group" vertex="1" connectable="0" parent="1">
          <mxGeometry x="920" y="430" width="200" height="490" as="geometry" />
        </mxCell>
        <mxCell id="LpPOCJGxp_nDcjdyFBbE-22" value="" style="edgeStyle=orthogonalEdgeStyle;orthogonalLoop=1;jettySize=auto;html=1;rounded=0;strokeColor=default;align=center;verticalAlign=middle;fontFamily=Helvetica;fontSize=11;fontColor=default;labelBackgroundColor=default;endArrow=none;endFill=0;exitX=0.75;exitY=1;exitDx=0;exitDy=0;entryX=0;entryY=0.5;entryDx=0;entryDy=0;" edge="1" parent="LpPOCJGxp_nDcjdyFBbE-43" source="e_Prodotto" target="e_DettaglioOfferta">
          <mxGeometry width="80" relative="1" as="geometry">
            <mxPoint x="-40" y="480" as="sourcePoint" />
            <mxPoint x="40" y="480" as="targetPoint" />
            <Array as="points">
              <mxPoint x="30" y="30" />
              <mxPoint x="160" y="30" />
              <mxPoint x="160" y="460" />
            </Array>
          </mxGeometry>
        </mxCell>
        <mxCell id="LpPOCJGxp_nDcjdyFBbE-23" value="&lt;span style=&quot;font-size: 14px;&quot;&gt;1&lt;/span&gt;" style="text;html=1;align=center;verticalAlign=middle;resizable=0;points=[];autosize=1;strokeColor=none;fillColor=none;fontFamily=Helvetica;fontSize=11;fontColor=default;labelBackgroundColor=default;" vertex="1" parent="LpPOCJGxp_nDcjdyFBbE-43">
          <mxGeometry width="30" height="30" as="geometry" />
        </mxCell>
        <mxCell id="LpPOCJGxp_nDcjdyFBbE-24" value="&lt;font style=&quot;font-size: 14px;&quot;&gt;N&lt;/font&gt;" style="text;html=1;align=center;verticalAlign=middle;resizable=0;points=[];autosize=1;strokeColor=none;fillColor=none;fontFamily=Helvetica;fontSize=11;fontColor=default;labelBackgroundColor=default;" vertex="1" parent="LpPOCJGxp_nDcjdyFBbE-43">
          <mxGeometry x="170" y="460" width="30" height="30" as="geometry" />
        </mxCell>
        <mxCell id="LpPOCJGxp_nDcjdyFBbE-44" value="" style="group" vertex="1" connectable="0" parent="1">
          <mxGeometry x="1010" y="390" width="110" height="120" as="geometry" />
        </mxCell>
        <mxCell id="LpPOCJGxp_nDcjdyFBbE-9" value="" style="edgeStyle=none;orthogonalLoop=1;jettySize=auto;html=1;rounded=0;strokeColor=default;align=center;verticalAlign=middle;fontFamily=Helvetica;fontSize=11;fontColor=default;labelBackgroundColor=default;endArrow=none;endFill=0;entryX=0.03;entryY=0.964;entryDx=0;entryDy=0;entryPerimeter=0;" edge="1" parent="LpPOCJGxp_nDcjdyFBbE-44" target="e_PuntoVendita">
          <mxGeometry width="80" relative="1" as="geometry">
            <mxPoint x="19" y="120" as="sourcePoint" />
            <mxPoint x="130" y="60" as="targetPoint" />
            <Array as="points" />
          </mxGeometry>
        </mxCell>
        <mxCell id="LpPOCJGxp_nDcjdyFBbE-10" value="&lt;span style=&quot;font-size: 14px;&quot;&gt;1&lt;/span&gt;" style="text;html=1;align=center;verticalAlign=middle;resizable=0;points=[];autosize=1;strokeColor=none;fillColor=none;fontFamily=Helvetica;fontSize=11;fontColor=default;labelBackgroundColor=default;" vertex="1" parent="LpPOCJGxp_nDcjdyFBbE-44">
          <mxGeometry x="80" width="30" height="30" as="geometry" />
        </mxCell>
        <mxCell id="LpPOCJGxp_nDcjdyFBbE-11" value="&lt;font style=&quot;font-size: 14px;&quot;&gt;N&lt;/font&gt;" style="text;html=1;align=center;verticalAlign=middle;resizable=0;points=[];autosize=1;strokeColor=none;fillColor=none;fontFamily=Helvetica;fontSize=11;fontColor=default;labelBackgroundColor=default;" vertex="1" parent="LpPOCJGxp_nDcjdyFBbE-44">
          <mxGeometry y="80" width="30" height="30" as="geometry" />
        </mxCell>
        <mxCell id="LpPOCJGxp_nDcjdyFBbE-45" value="" style="group" vertex="1" connectable="0" parent="1">
          <mxGeometry x="1290" y="410" width="30" height="90" as="geometry" />
        </mxCell>
        <mxCell id="LpPOCJGxp_nDcjdyFBbE-16" value="" style="edgeStyle=none;shape=connector;rounded=0;orthogonalLoop=1;jettySize=auto;html=1;strokeColor=default;align=center;verticalAlign=middle;fontFamily=Helvetica;fontSize=11;fontColor=default;labelBackgroundColor=default;endArrow=none;endFill=0;" edge="1" parent="LpPOCJGxp_nDcjdyFBbE-45" source="e_PuntoVendita" target="e_Offerta">
          <mxGeometry relative="1" as="geometry" />
        </mxCell>
        <mxCell id="LpPOCJGxp_nDcjdyFBbE-17" value="&lt;span style=&quot;font-size: 14px;&quot;&gt;1&lt;/span&gt;" style="text;html=1;align=center;verticalAlign=middle;resizable=0;points=[];autosize=1;strokeColor=none;fillColor=none;fontFamily=Helvetica;fontSize=11;fontColor=default;labelBackgroundColor=default;" vertex="1" parent="LpPOCJGxp_nDcjdyFBbE-45">
          <mxGeometry width="30" height="30" as="geometry" />
        </mxCell>
        <mxCell id="LpPOCJGxp_nDcjdyFBbE-18" value="&lt;span style=&quot;font-size: 14px;&quot;&gt;N&lt;/span&gt;" style="text;html=1;align=center;verticalAlign=middle;resizable=0;points=[];autosize=1;strokeColor=none;fillColor=none;fontFamily=Helvetica;fontSize=11;fontColor=default;labelBackgroundColor=default;" vertex="1" parent="LpPOCJGxp_nDcjdyFBbE-45">
          <mxGeometry y="60" width="30" height="30" as="geometry" />
        </mxCell>
        <mxCell id="LpPOCJGxp_nDcjdyFBbE-46" value="" style="group" vertex="1" connectable="0" parent="1">
          <mxGeometry x="1290" y="700" width="30" height="100" as="geometry" />
        </mxCell>
        <mxCell id="LpPOCJGxp_nDcjdyFBbE-19" value="" style="edgeStyle=none;shape=connector;rounded=0;orthogonalLoop=1;jettySize=auto;html=1;strokeColor=default;align=center;verticalAlign=middle;fontFamily=Helvetica;fontSize=11;fontColor=default;labelBackgroundColor=default;endArrow=none;endFill=0;" edge="1" parent="LpPOCJGxp_nDcjdyFBbE-46" source="e_Offerta" target="e_DettaglioOfferta">
          <mxGeometry relative="1" as="geometry" />
        </mxCell>
        <mxCell id="LpPOCJGxp_nDcjdyFBbE-20" value="&lt;font style=&quot;font-size: 14px;&quot;&gt;1&lt;/font&gt;" style="text;html=1;align=center;verticalAlign=middle;resizable=0;points=[];autosize=1;strokeColor=none;fillColor=none;fontFamily=Helvetica;fontSize=11;fontColor=default;labelBackgroundColor=default;" vertex="1" parent="LpPOCJGxp_nDcjdyFBbE-46">
          <mxGeometry width="30" height="30" as="geometry" />
        </mxCell>
        <mxCell id="LpPOCJGxp_nDcjdyFBbE-21" value="&lt;font style=&quot;font-size: 14px;&quot;&gt;N&lt;/font&gt;" style="text;html=1;align=center;verticalAlign=middle;resizable=0;points=[];autosize=1;strokeColor=none;fillColor=none;fontFamily=Helvetica;fontSize=11;fontColor=default;labelBackgroundColor=default;" vertex="1" parent="LpPOCJGxp_nDcjdyFBbE-46">
          <mxGeometry y="70" width="30" height="30" as="geometry" />
        </mxCell>
        <mxCell id="LpPOCJGxp_nDcjdyFBbE-47" value="" style="group" vertex="1" connectable="0" parent="1">
          <mxGeometry x="410" y="410" width="30" height="430" as="geometry" />
        </mxCell>
        <mxCell id="LpPOCJGxp_nDcjdyFBbE-26" value="" style="edgeStyle=none;orthogonalLoop=1;jettySize=auto;html=1;rounded=0;strokeColor=default;align=center;verticalAlign=middle;fontFamily=Helvetica;fontSize=11;fontColor=default;labelBackgroundColor=default;endArrow=none;endFill=0;exitX=0.5;exitY=1;exitDx=0;exitDy=0;entryX=0.5;entryY=0;entryDx=0;entryDy=0;" edge="1" parent="LpPOCJGxp_nDcjdyFBbE-47" source="e_Utente" target="e_Watchlist">
          <mxGeometry width="80" relative="1" as="geometry">
            <mxPoint x="10" y="130" as="sourcePoint" />
            <mxPoint x="90" y="130" as="targetPoint" />
            <Array as="points" />
          </mxGeometry>
        </mxCell>
        <mxCell id="LpPOCJGxp_nDcjdyFBbE-27" value="&lt;font style=&quot;font-size: 14px;&quot;&gt;1&lt;/font&gt;" style="text;html=1;align=center;verticalAlign=middle;resizable=0;points=[];autosize=1;strokeColor=none;fillColor=none;fontFamily=Helvetica;fontSize=11;fontColor=default;labelBackgroundColor=default;" vertex="1" parent="LpPOCJGxp_nDcjdyFBbE-47">
          <mxGeometry width="30" height="30" as="geometry" />
        </mxCell>
        <mxCell id="LpPOCJGxp_nDcjdyFBbE-28" value="&lt;font style=&quot;font-size: 14px;&quot;&gt;N&lt;/font&gt;" style="text;html=1;align=center;verticalAlign=middle;resizable=0;points=[];autosize=1;strokeColor=none;fillColor=none;fontFamily=Helvetica;fontSize=11;fontColor=default;labelBackgroundColor=default;" vertex="1" parent="LpPOCJGxp_nDcjdyFBbE-47">
          <mxGeometry y="400" width="30" height="30" as="geometry" />
        </mxCell>
        <mxCell id="LpPOCJGxp_nDcjdyFBbE-38" value="" style="group" vertex="1" connectable="0" parent="1">
          <mxGeometry x="80" y="170" width="720" height="340" as="geometry" />
        </mxCell>
        <mxCell id="LpPOCJGxp_nDcjdyFBbE-35" value="" style="edgeStyle=orthogonalEdgeStyle;orthogonalLoop=1;jettySize=auto;html=1;rounded=0;strokeColor=default;align=center;verticalAlign=middle;fontFamily=Helvetica;fontSize=11;fontColor=default;labelBackgroundColor=default;endArrow=none;endFill=0;entryX=0.25;entryY=0;entryDx=0;entryDy=0;exitX=0.25;exitY=0;exitDx=0;exitDy=0;" edge="1" parent="LpPOCJGxp_nDcjdyFBbE-38" source="e_Notifica" target="e_Prodotto">
          <mxGeometry width="80" relative="1" as="geometry">
            <mxPoint x="310" y="-90" as="sourcePoint" />
            <mxPoint x="390" y="-90" as="targetPoint" />
            <Array as="points">
              <mxPoint x="35" />
              <mxPoint x="690" />
            </Array>
          </mxGeometry>
        </mxCell>
        <mxCell id="LpPOCJGxp_nDcjdyFBbE-36" value="&lt;font style=&quot;font-size: 14px;&quot;&gt;1&lt;/font&gt;" style="text;html=1;align=center;verticalAlign=middle;resizable=0;points=[];autosize=1;strokeColor=none;fillColor=none;fontFamily=Helvetica;fontSize=11;fontColor=default;labelBackgroundColor=default;" vertex="1" parent="LpPOCJGxp_nDcjdyFBbE-38">
          <mxGeometry x="690" y="20" width="30" height="30" as="geometry" />
        </mxCell>
        <mxCell id="LpPOCJGxp_nDcjdyFBbE-37" value="&lt;font style=&quot;font-size: 14px;&quot;&gt;N&lt;/font&gt;" style="text;html=1;align=center;verticalAlign=middle;resizable=0;points=[];autosize=1;strokeColor=none;fillColor=none;fontFamily=Helvetica;fontSize=11;fontColor=default;labelBackgroundColor=default;" vertex="1" parent="LpPOCJGxp_nDcjdyFBbE-38">
          <mxGeometry y="310" width="30" height="30" as="geometry" />
        </mxCell>
        <mxCell id="LpPOCJGxp_nDcjdyFBbE-33" value="&lt;span style=&quot;font-size: 14px;&quot;&gt;1&lt;/span&gt;" style="text;html=1;align=center;verticalAlign=middle;resizable=0;points=[];autosize=1;strokeColor=none;fillColor=none;fontFamily=Helvetica;fontSize=11;fontColor=default;labelBackgroundColor=default;" vertex="1" parent="LpPOCJGxp_nDcjdyFBbE-38">
          <mxGeometry x="170" y="120" width="30" height="30" as="geometry" />
        </mxCell>
        <mxCell id="LpPOCJGxp_nDcjdyFBbE-32" value="" style="edgeStyle=orthogonalEdgeStyle;orthogonalLoop=1;jettySize=auto;html=1;rounded=0;strokeColor=default;align=center;verticalAlign=middle;fontFamily=Helvetica;fontSize=11;fontColor=default;labelBackgroundColor=default;endArrow=none;endFill=0;exitX=0.5;exitY=0;exitDx=0;exitDy=0;" edge="1" parent="1" source="e_Notifica">
          <mxGeometry width="80" relative="1" as="geometry">
            <mxPoint x="320" y="130" as="sourcePoint" />
            <mxPoint x="280" y="320" as="targetPoint" />
            <Array as="points">
              <mxPoint x="200" y="320" />
              <mxPoint x="280" y="320" />
            </Array>
          </mxGeometry>
        </mxCell>
        <mxCell id="LpPOCJGxp_nDcjdyFBbE-34" value="&lt;span style=&quot;font-size: 14px;&quot;&gt;N&lt;/span&gt;" style="text;html=1;align=center;verticalAlign=middle;resizable=0;points=[];autosize=1;strokeColor=none;fillColor=none;fontFamily=Helvetica;fontSize=11;fontColor=default;labelBackgroundColor=default;" vertex="1" parent="1">
          <mxGeometry x="170" y="480" width="30" height="30" as="geometry" />
        </mxCell>
      </root>
    </mxGraphModel>
  </diagram>
</mxfile>
